<mxfile host="app.diagrams.net" modified="2023-06-14T08:26:33.210Z" agent="Mozilla/5.0 (Windows NT 10.0; Win64; x64) AppleWebKit/537.36 (KHTML, like Gecko) Chrome/114.0.0.0 Safari/537.36" etag="J-LkMGXeJLDb6XQCB2pY" version="21.3.8" type="github">
  <diagram name="Page-1" id="e7e014a7-5840-1c2e-5031-d8a46d1fe8dd">
    <mxGraphModel dx="1793" dy="955" grid="1" gridSize="10" guides="1" tooltips="1" connect="1" arrows="1" fold="1" page="1" pageScale="1" pageWidth="1169" pageHeight="826" background="none" math="0" shadow="0">
      <root>
        <mxCell id="0" />
        <mxCell id="1" parent="0" />
        <mxCell id="2" value="Mobile" style="swimlane;whiteSpace=wrap" parent="1" vertex="1">
          <mxGeometry x="30" y="128" width="380" height="2442" as="geometry" />
        </mxCell>
        <mxCell id="E8R9tOtTosxfVHhhN3oH-79" value="" style="whiteSpace=wrap;html=1;aspect=fixed;dashed=1;" vertex="1" parent="2">
          <mxGeometry x="121" y="568" width="88" height="88" as="geometry" />
        </mxCell>
        <mxCell id="E8R9tOtTosxfVHhhN3oH-80" value="token" style="rounded=0;whiteSpace=wrap;html=1;" vertex="1" parent="2">
          <mxGeometry x="130" y="578" width="70" height="30" as="geometry" />
        </mxCell>
        <mxCell id="E8R9tOtTosxfVHhhN3oH-81" value="pub_key" style="rounded=0;whiteSpace=wrap;html=1;fillColor=#fad9d5;strokeColor=#ae4132;" vertex="1" parent="2">
          <mxGeometry x="130" y="618" width="70" height="30" as="geometry" />
        </mxCell>
        <mxCell id="E8R9tOtTosxfVHhhN3oH-88" value="Generate" style="swimlane;whiteSpace=wrap;html=1;dashed=1;" vertex="1" parent="2">
          <mxGeometry x="130" y="692" width="180" height="118" as="geometry">
            <mxRectangle x="50" y="112" width="90" height="30" as="alternateBounds" />
          </mxGeometry>
        </mxCell>
        <mxCell id="E8R9tOtTosxfVHhhN3oH-89" value="mPub_key" style="rounded=0;whiteSpace=wrap;html=1;" vertex="1" parent="E8R9tOtTosxfVHhhN3oH-88">
          <mxGeometry x="10" y="40" width="80" height="30" as="geometry" />
        </mxCell>
        <mxCell id="E8R9tOtTosxfVHhhN3oH-90" value="mPriv_key" style="rounded=0;whiteSpace=wrap;html=1;" vertex="1" parent="E8R9tOtTosxfVHhhN3oH-88">
          <mxGeometry x="100" y="40" width="70" height="30" as="geometry" />
        </mxCell>
        <mxCell id="E8R9tOtTosxfVHhhN3oH-92" value="random_data" style="rounded=0;whiteSpace=wrap;html=1;" vertex="1" parent="E8R9tOtTosxfVHhhN3oH-88">
          <mxGeometry x="10" y="78" width="80" height="30" as="geometry" />
        </mxCell>
        <mxCell id="E8R9tOtTosxfVHhhN3oH-313" value="device_pc_id" style="rounded=0;whiteSpace=wrap;html=1;fillColor=#b0e3e6;strokeColor=#0e8088;" vertex="1" parent="E8R9tOtTosxfVHhhN3oH-88">
          <mxGeometry x="100" y="78" width="70" height="30" as="geometry" />
        </mxCell>
        <mxCell id="E8R9tOtTosxfVHhhN3oH-93" value="login_normally" style="rounded=0;whiteSpace=wrap;html=1;" vertex="1" parent="2">
          <mxGeometry x="21" y="712" width="89" height="60" as="geometry" />
        </mxCell>
        <mxCell id="E8R9tOtTosxfVHhhN3oH-95" value="" style="endArrow=classic;html=1;rounded=0;entryX=0.5;entryY=0;entryDx=0;entryDy=0;" edge="1" parent="2" target="E8R9tOtTosxfVHhhN3oH-93">
          <mxGeometry width="50" height="50" relative="1" as="geometry">
            <mxPoint x="130" y="592" as="sourcePoint" />
            <mxPoint x="180" y="542" as="targetPoint" />
            <Array as="points">
              <mxPoint x="66" y="592" />
              <mxPoint x="66" y="622" />
            </Array>
          </mxGeometry>
        </mxCell>
        <mxCell id="E8R9tOtTosxfVHhhN3oH-96" value="encrypted_msg(&#39;Done&#39; || random_data || mPub_key, pub_key)" style="rounded=0;whiteSpace=wrap;html=1;" vertex="1" parent="2">
          <mxGeometry x="130.5" y="842" width="189" height="60" as="geometry" />
        </mxCell>
        <mxCell id="E8R9tOtTosxfVHhhN3oH-100" value="" style="endArrow=classic;html=1;rounded=0;entryX=0.525;entryY=0.003;entryDx=0;entryDy=0;entryPerimeter=0;" edge="1" parent="2" target="E8R9tOtTosxfVHhhN3oH-96">
          <mxGeometry width="50" height="50" relative="1" as="geometry">
            <mxPoint x="230" y="812" as="sourcePoint" />
            <mxPoint x="380" y="772" as="targetPoint" />
            <Array as="points">
              <mxPoint x="230" y="822" />
            </Array>
          </mxGeometry>
        </mxCell>
        <mxCell id="E8R9tOtTosxfVHhhN3oH-101" value="" style="endArrow=none;html=1;rounded=0;" edge="1" parent="2">
          <mxGeometry width="50" height="50" relative="1" as="geometry">
            <mxPoint x="199.5" y="637" as="sourcePoint" />
            <mxPoint x="230" y="822" as="targetPoint" />
            <Array as="points">
              <mxPoint x="319.5" y="637" />
              <mxPoint x="319.5" y="822" />
            </Array>
          </mxGeometry>
        </mxCell>
        <mxCell id="E8R9tOtTosxfVHhhN3oH-151" value="" style="whiteSpace=wrap;html=1;aspect=fixed;dashed=1;" vertex="1" parent="2">
          <mxGeometry x="147.12" y="1040" width="118" height="118" as="geometry" />
        </mxCell>
        <mxCell id="E8R9tOtTosxfVHhhN3oH-152" value="failed_exchange" style="rounded=0;whiteSpace=wrap;html=1;" vertex="1" parent="2">
          <mxGeometry x="154" y="1083" width="104.25" height="32" as="geometry" />
        </mxCell>
        <mxCell id="E8R9tOtTosxfVHhhN3oH-157" value="Stop flow" style="rounded=0;whiteSpace=wrap;html=1;fillColor=#bac8d3;strokeColor=#23445d;" vertex="1" parent="2">
          <mxGeometry x="9" y="1743" width="81" height="38" as="geometry" />
        </mxCell>
        <mxCell id="E8R9tOtTosxfVHhhN3oH-158" value="" style="endArrow=classic;html=1;rounded=0;exitX=-0.021;exitY=0.506;exitDx=0;exitDy=0;exitPerimeter=0;" edge="1" parent="2" source="E8R9tOtTosxfVHhhN3oH-151">
          <mxGeometry width="50" height="50" relative="1" as="geometry">
            <mxPoint x="141.99" y="1112" as="sourcePoint" />
            <mxPoint x="50" y="1742" as="targetPoint" />
            <Array as="points">
              <mxPoint x="45.989999999999995" y="1100" />
            </Array>
          </mxGeometry>
        </mxCell>
        <mxCell id="E8R9tOtTosxfVHhhN3oH-185" value="" style="whiteSpace=wrap;html=1;aspect=fixed;dashed=1;" vertex="1" parent="2">
          <mxGeometry x="148.49" y="1482" width="105.63" height="105.63" as="geometry" />
        </mxCell>
        <mxCell id="E8R9tOtTosxfVHhhN3oH-186" value="encrypted_msg" style="rounded=0;whiteSpace=wrap;html=1;" vertex="1" parent="2">
          <mxGeometry x="156.30000000000007" y="1521.82" width="90" height="26" as="geometry" />
        </mxCell>
        <mxCell id="E8R9tOtTosxfVHhhN3oH-187" value="decrypt" style="rounded=0;whiteSpace=wrap;html=1;" vertex="1" parent="2">
          <mxGeometry x="157.25" y="1632" width="90" height="38" as="geometry" />
        </mxCell>
        <mxCell id="E8R9tOtTosxfVHhhN3oH-188" value="decrypted_msg" style="swimlane;whiteSpace=wrap;html=1;dashed=1;" vertex="1" parent="2">
          <mxGeometry x="121.12" y="1842" width="170" height="118" as="geometry" />
        </mxCell>
        <mxCell id="E8R9tOtTosxfVHhhN3oH-190" value="random_data" style="rounded=0;whiteSpace=wrap;html=1;" vertex="1" parent="E8R9tOtTosxfVHhhN3oH-188">
          <mxGeometry x="44.75" y="60" width="82.75" height="30" as="geometry" />
        </mxCell>
        <mxCell id="E8R9tOtTosxfVHhhN3oH-204" value="" style="endArrow=classic;html=1;rounded=0;entryX=0.5;entryY=0;entryDx=0;entryDy=0;" edge="1" parent="E8R9tOtTosxfVHhhN3oH-188" target="E8R9tOtTosxfVHhhN3oH-197">
          <mxGeometry width="50" height="50" relative="1" as="geometry">
            <mxPoint x="82.88" y="120" as="sourcePoint" />
            <mxPoint x="137.13" y="70" as="targetPoint" />
          </mxGeometry>
        </mxCell>
        <mxCell id="E8R9tOtTosxfVHhhN3oH-196" value="Success?" style="rhombus;whiteSpace=wrap;html=1;" vertex="1" parent="2">
          <mxGeometry x="156" y="1722" width="92.5" height="80" as="geometry" />
        </mxCell>
        <mxCell id="E8R9tOtTosxfVHhhN3oH-197" value="Same random_data?" style="rhombus;whiteSpace=wrap;html=1;" vertex="1" parent="2">
          <mxGeometry x="147.12" y="2000" width="112.88" height="110" as="geometry" />
        </mxCell>
        <mxCell id="E8R9tOtTosxfVHhhN3oH-200" value="" style="endArrow=classic;html=1;rounded=0;entryX=0.5;entryY=0;entryDx=0;entryDy=0;" edge="1" parent="2" target="E8R9tOtTosxfVHhhN3oH-187">
          <mxGeometry width="50" height="50" relative="1" as="geometry">
            <mxPoint x="202" y="1588" as="sourcePoint" />
            <mxPoint x="254.12" y="1537.63" as="targetPoint" />
          </mxGeometry>
        </mxCell>
        <mxCell id="E8R9tOtTosxfVHhhN3oH-201" value="" style="endArrow=classic;html=1;rounded=0;entryX=0.5;entryY=0;entryDx=0;entryDy=0;" edge="1" parent="2" target="E8R9tOtTosxfVHhhN3oH-196">
          <mxGeometry width="50" height="50" relative="1" as="geometry">
            <mxPoint x="201.99" y="1670" as="sourcePoint" />
            <mxPoint x="201.99" y="1714" as="targetPoint" />
          </mxGeometry>
        </mxCell>
        <mxCell id="E8R9tOtTosxfVHhhN3oH-203" value="" style="endArrow=classic;html=1;rounded=0;exitX=0.5;exitY=1;exitDx=0;exitDy=0;entryX=0.477;entryY=-0.008;entryDx=0;entryDy=0;entryPerimeter=0;" edge="1" parent="2" source="E8R9tOtTosxfVHhhN3oH-196" target="E8R9tOtTosxfVHhhN3oH-188">
          <mxGeometry width="50" height="50" relative="1" as="geometry">
            <mxPoint x="350" y="1882" as="sourcePoint" />
            <mxPoint x="400" y="1832" as="targetPoint" />
          </mxGeometry>
        </mxCell>
        <mxCell id="E8R9tOtTosxfVHhhN3oH-206" value="" style="endArrow=classic;html=1;rounded=0;exitX=0;exitY=0.5;exitDx=0;exitDy=0;entryX=1;entryY=0.5;entryDx=0;entryDy=0;" edge="1" parent="2" source="E8R9tOtTosxfVHhhN3oH-196" target="E8R9tOtTosxfVHhhN3oH-157">
          <mxGeometry width="50" height="50" relative="1" as="geometry">
            <mxPoint x="260" y="1752" as="sourcePoint" />
            <mxPoint x="310" y="1702" as="targetPoint" />
          </mxGeometry>
        </mxCell>
        <mxCell id="E8R9tOtTosxfVHhhN3oH-216" value="" style="endArrow=classic;html=1;rounded=0;strokeWidth=2;fillColor=#b1ddf0;strokeColor=#007FFF;" edge="1" parent="2">
          <mxGeometry width="50" height="50" relative="1" as="geometry">
            <mxPoint x="498.25" y="1534.48" as="sourcePoint" />
            <mxPoint x="258.25" y="1534.82" as="targetPoint" />
          </mxGeometry>
        </mxCell>
        <mxCell id="E8R9tOtTosxfVHhhN3oH-227" value="" style="endArrow=classic;html=1;rounded=0;entryX=0.5;entryY=0;entryDx=0;entryDy=0;exitX=0.5;exitY=1;exitDx=0;exitDy=0;" edge="1" parent="2" source="E8R9tOtTosxfVHhhN3oH-197">
          <mxGeometry width="50" height="50" relative="1" as="geometry">
            <mxPoint x="200" y="2112" as="sourcePoint" />
            <mxPoint x="203.55999999999995" y="2142" as="targetPoint" />
          </mxGeometry>
        </mxCell>
        <mxCell id="E8R9tOtTosxfVHhhN3oH-228" value="Yes" style="text;html=1;align=center;verticalAlign=middle;resizable=0;points=[];autosize=1;strokeColor=none;fillColor=none;" vertex="1" parent="2">
          <mxGeometry x="200" y="2102" width="40" height="30" as="geometry" />
        </mxCell>
        <mxCell id="E8R9tOtTosxfVHhhN3oH-315" value="persist" style="swimlane;whiteSpace=wrap;html=1;dashed=1;" vertex="1" parent="2">
          <mxGeometry x="121" y="2142" width="160.5" height="130" as="geometry" />
        </mxCell>
        <mxCell id="E8R9tOtTosxfVHhhN3oH-321" value="device_pc_id" style="rounded=0;whiteSpace=wrap;html=1;fillColor=#b0e3e6;strokeColor=#0e8088;" vertex="1" parent="E8R9tOtTosxfVHhhN3oH-315">
          <mxGeometry x="69" y="40" width="70" height="30" as="geometry" />
        </mxCell>
        <mxCell id="E8R9tOtTosxfVHhhN3oH-320" value="pub_key" style="rounded=0;whiteSpace=wrap;html=1;fillColor=#fad9d5;strokeColor=#ae4132;" vertex="1" parent="E8R9tOtTosxfVHhhN3oH-315">
          <mxGeometry x="69" y="80" width="70" height="30" as="geometry" />
        </mxCell>
        <mxCell id="E8R9tOtTosxfVHhhN3oH-331" value="uid" style="text;html=1;align=center;verticalAlign=middle;resizable=0;points=[];autosize=1;strokeColor=none;fillColor=none;" vertex="1" parent="E8R9tOtTosxfVHhhN3oH-315">
          <mxGeometry x="9" y="58" width="40" height="30" as="geometry" />
        </mxCell>
        <mxCell id="E8R9tOtTosxfVHhhN3oH-322" value="" style="endArrow=classic;html=1;rounded=0;exitX=0;exitY=0.5;exitDx=0;exitDy=0;entryX=0.5;entryY=1;entryDx=0;entryDy=0;" edge="1" parent="2" source="E8R9tOtTosxfVHhhN3oH-315" target="E8R9tOtTosxfVHhhN3oH-157">
          <mxGeometry width="50" height="50" relative="1" as="geometry">
            <mxPoint x="360" y="1932" as="sourcePoint" />
            <mxPoint x="410" y="1882" as="targetPoint" />
            <Array as="points">
              <mxPoint x="50" y="2207" />
            </Array>
          </mxGeometry>
        </mxCell>
        <mxCell id="3" value="Server" style="swimlane;whiteSpace=wrap" parent="1" vertex="1">
          <mxGeometry x="440" y="128" width="294.5" height="2442" as="geometry">
            <mxRectangle x="444.5" y="128" width="80" height="30" as="alternateBounds" />
          </mxGeometry>
        </mxCell>
        <mxCell id="E8R9tOtTosxfVHhhN3oH-42" value="Generate" style="swimlane;whiteSpace=wrap;html=1;dashed=1;fillColor=default;" vertex="1" parent="3">
          <mxGeometry x="75.5" y="32" width="114.5" height="88" as="geometry" />
        </mxCell>
        <mxCell id="E8R9tOtTosxfVHhhN3oH-45" value="QR login" style="rounded=0;whiteSpace=wrap;html=1;" vertex="1" parent="E8R9tOtTosxfVHhhN3oH-42">
          <mxGeometry x="20" y="34" width="70" height="30" as="geometry" />
        </mxCell>
        <mxCell id="E8R9tOtTosxfVHhhN3oH-56" value="" style="endArrow=classic;html=1;rounded=0;entryX=0;entryY=0.5;entryDx=0;entryDy=0;" edge="1" parent="E8R9tOtTosxfVHhhN3oH-42" target="E8R9tOtTosxfVHhhN3oH-55">
          <mxGeometry width="50" height="50" relative="1" as="geometry">
            <mxPoint x="60" y="90" as="sourcePoint" />
            <mxPoint x="110" y="40" as="targetPoint" />
            <Array as="points">
              <mxPoint x="60" y="244" />
            </Array>
          </mxGeometry>
        </mxCell>
        <mxCell id="E8R9tOtTosxfVHhhN3oH-46" value="" style="endArrow=classic;html=1;rounded=0;exitX=0;exitY=0.5;exitDx=0;exitDy=0;" edge="1" parent="3" source="E8R9tOtTosxfVHhhN3oH-41">
          <mxGeometry width="50" height="50" relative="1" as="geometry">
            <mxPoint x="423.5" y="76" as="sourcePoint" />
            <mxPoint x="190" y="75.58" as="targetPoint" />
          </mxGeometry>
        </mxCell>
        <mxCell id="E8R9tOtTosxfVHhhN3oH-87" value="Scan QR&amp;nbsp;" style="text;html=1;strokeColor=none;fillColor=none;align=center;verticalAlign=middle;whiteSpace=wrap;rounded=0;fontSize=15;fontStyle=1;fontColor=#67AB9F;" vertex="1" parent="3">
          <mxGeometry x="115" y="582" width="75" height="30" as="geometry" />
        </mxCell>
        <mxCell id="E8R9tOtTosxfVHhhN3oH-122" value="" style="whiteSpace=wrap;html=1;aspect=fixed;dashed=1;" vertex="1" parent="3">
          <mxGeometry x="82.13" y="842" width="101.25" height="101.25" as="geometry" />
        </mxCell>
        <mxCell id="E8R9tOtTosxfVHhhN3oH-123" value="encrypted_msg" style="rounded=0;whiteSpace=wrap;html=1;" vertex="1" parent="3">
          <mxGeometry x="89.13" y="879.63" width="87.25" height="26" as="geometry" />
        </mxCell>
        <mxCell id="E8R9tOtTosxfVHhhN3oH-146" value="" style="whiteSpace=wrap;html=1;aspect=fixed;dashed=1;" vertex="1" parent="3">
          <mxGeometry x="77.36999999999999" y="1052" width="118" height="118" as="geometry" />
        </mxCell>
        <mxCell id="E8R9tOtTosxfVHhhN3oH-147" value="failed_exchange" style="rounded=0;whiteSpace=wrap;html=1;" vertex="1" parent="3">
          <mxGeometry x="84.24" y="1098" width="104.25" height="26" as="geometry" />
        </mxCell>
        <mxCell id="E8R9tOtTosxfVHhhN3oH-192" value="" style="whiteSpace=wrap;html=1;aspect=fixed;dashed=1;" vertex="1" parent="3">
          <mxGeometry x="94.12" y="1482" width="101.25" height="101.25" as="geometry" />
        </mxCell>
        <mxCell id="E8R9tOtTosxfVHhhN3oH-193" value="encrypted_msg" style="rounded=0;whiteSpace=wrap;html=1;" vertex="1" parent="3">
          <mxGeometry x="101.12" y="1519.63" width="87.25" height="26" as="geometry" />
        </mxCell>
        <mxCell id="E8R9tOtTosxfVHhhN3oH-198" value="" style="whiteSpace=wrap;html=1;aspect=fixed;dashed=1;" vertex="1" parent="3">
          <mxGeometry x="89.13000000000001" y="2102" width="118" height="118" as="geometry" />
        </mxCell>
        <mxCell id="E8R9tOtTosxfVHhhN3oH-199" value="succeed_exchange" style="rounded=0;whiteSpace=wrap;html=1;" vertex="1" parent="3">
          <mxGeometry x="96.00000000000001" y="2148" width="104.25" height="26" as="geometry" />
        </mxCell>
        <mxCell id="E8R9tOtTosxfVHhhN3oH-233" value="" style="whiteSpace=wrap;html=1;aspect=fixed;dashed=1;" vertex="1" parent="3">
          <mxGeometry x="88.25" y="1702" width="118" height="118" as="geometry" />
        </mxCell>
        <mxCell id="E8R9tOtTosxfVHhhN3oH-234" value="failed_exchange" style="rounded=0;whiteSpace=wrap;html=1;" vertex="1" parent="3">
          <mxGeometry x="95.12" y="1748" width="104.25" height="26" as="geometry" />
        </mxCell>
        <mxCell id="4" value="PC" style="swimlane;whiteSpace=wrap" parent="1" vertex="1">
          <mxGeometry x="760" y="128" width="390" height="2442" as="geometry" />
        </mxCell>
        <mxCell id="E8R9tOtTosxfVHhhN3oH-41" value="Login init" style="rounded=0;whiteSpace=wrap;html=1;" vertex="1" parent="4">
          <mxGeometry x="80" y="52" width="100" height="48" as="geometry" />
        </mxCell>
        <mxCell id="E8R9tOtTosxfVHhhN3oH-47" value="Generate" style="swimlane;whiteSpace=wrap;html=1;dashed=1;" vertex="1" parent="4">
          <mxGeometry x="50" y="112" width="170" height="90" as="geometry">
            <mxRectangle x="50" y="112" width="90" height="30" as="alternateBounds" />
          </mxGeometry>
        </mxCell>
        <mxCell id="E8R9tOtTosxfVHhhN3oH-48" value="pub_key" style="rounded=0;whiteSpace=wrap;html=1;fillColor=#fad9d5;strokeColor=#ae4132;" vertex="1" parent="E8R9tOtTosxfVHhhN3oH-47">
          <mxGeometry x="10" y="40" width="70" height="30" as="geometry" />
        </mxCell>
        <mxCell id="E8R9tOtTosxfVHhhN3oH-49" value="priv_key" style="rounded=0;whiteSpace=wrap;html=1;" vertex="1" parent="E8R9tOtTosxfVHhhN3oH-47">
          <mxGeometry x="90" y="40" width="75" height="30" as="geometry" />
        </mxCell>
        <mxCell id="E8R9tOtTosxfVHhhN3oH-55" value="Parse QR login" style="rounded=0;whiteSpace=wrap;html=1;fillColor=#bac8d3;strokeColor=#23445d;" vertex="1" parent="4">
          <mxGeometry x="87.5" y="252" width="105" height="48" as="geometry" />
        </mxCell>
        <mxCell id="E8R9tOtTosxfVHhhN3oH-57" value="Success ?" style="html=1;whiteSpace=wrap;aspect=fixed;shape=isoRectangle;" vertex="1" parent="4">
          <mxGeometry x="90" y="322" width="100" height="60" as="geometry" />
        </mxCell>
        <mxCell id="E8R9tOtTosxfVHhhN3oH-68" value="" style="whiteSpace=wrap;html=1;aspect=fixed;dashed=1;" vertex="1" parent="4">
          <mxGeometry x="96" y="402" width="88" height="88" as="geometry" />
        </mxCell>
        <mxCell id="E8R9tOtTosxfVHhhN3oH-70" value="pub_key" style="rounded=0;whiteSpace=wrap;html=1;fillColor=#fad9d5;strokeColor=#ae4132;" vertex="1" parent="4">
          <mxGeometry x="105" y="412" width="70" height="30" as="geometry" />
        </mxCell>
        <mxCell id="E8R9tOtTosxfVHhhN3oH-71" value="token" style="rounded=0;whiteSpace=wrap;html=1;" vertex="1" parent="4">
          <mxGeometry x="105" y="452" width="70" height="30" as="geometry" />
        </mxCell>
        <mxCell id="E8R9tOtTosxfVHhhN3oH-72" value="login_normally" style="rounded=0;whiteSpace=wrap;html=1;" vertex="1" parent="4">
          <mxGeometry x="230" y="440" width="120" height="50" as="geometry" />
        </mxCell>
        <mxCell id="E8R9tOtTosxfVHhhN3oH-73" value="Generate new QR login" style="rounded=0;whiteSpace=wrap;html=1;fillColor=#bac8d3;strokeColor=#23445d;" vertex="1" parent="4">
          <mxGeometry x="90" y="512" width="105" height="48" as="geometry" />
        </mxCell>
        <mxCell id="E8R9tOtTosxfVHhhN3oH-74" value="Success ?" style="html=1;whiteSpace=wrap;aspect=fixed;shape=isoRectangle;" vertex="1" parent="4">
          <mxGeometry x="90" y="582" width="100" height="60" as="geometry" />
        </mxCell>
        <mxCell id="E8R9tOtTosxfVHhhN3oH-82" value="" style="endArrow=classic;html=1;rounded=0;strokeWidth=2;exitX=-0.01;exitY=0.513;exitDx=0;exitDy=0;exitPerimeter=0;fillColor=#d5e8d4;strokeColor=#82b366;" edge="1" parent="4" source="E8R9tOtTosxfVHhhN3oH-74">
          <mxGeometry width="50" height="50" relative="1" as="geometry">
            <mxPoint x="87.5" y="612" as="sourcePoint" />
            <mxPoint x="-520" y="612" as="targetPoint" />
          </mxGeometry>
        </mxCell>
        <mxCell id="E8R9tOtTosxfVHhhN3oH-85" value="" style="endArrow=classic;html=1;rounded=0;" edge="1" parent="4">
          <mxGeometry width="50" height="50" relative="1" as="geometry">
            <mxPoint x="187.5" y="612" as="sourcePoint" />
            <mxPoint x="290" y="492" as="targetPoint" />
            <Array as="points">
              <mxPoint x="290" y="612" />
            </Array>
          </mxGeometry>
        </mxCell>
        <mxCell id="E8R9tOtTosxfVHhhN3oH-86" value="" style="endArrow=classic;html=1;rounded=0;exitX=1;exitY=0.5;exitDx=0;exitDy=0;exitPerimeter=0;entryX=0.5;entryY=0;entryDx=0;entryDy=0;" edge="1" parent="4" source="E8R9tOtTosxfVHhhN3oH-57" target="E8R9tOtTosxfVHhhN3oH-72">
          <mxGeometry width="50" height="50" relative="1" as="geometry">
            <mxPoint x="195" y="276" as="sourcePoint" />
            <mxPoint x="290" y="422" as="targetPoint" />
            <Array as="points">
              <mxPoint x="290" y="352" />
            </Array>
          </mxGeometry>
        </mxCell>
        <mxCell id="E8R9tOtTosxfVHhhN3oH-104" value="" style="endArrow=classic;html=1;rounded=0;exitX=0.5;exitY=1;exitDx=0;exitDy=0;" edge="1" parent="4" source="E8R9tOtTosxfVHhhN3oH-55">
          <mxGeometry width="50" height="50" relative="1" as="geometry">
            <mxPoint x="137.5" y="310" as="sourcePoint" />
            <mxPoint x="140" y="322" as="targetPoint" />
          </mxGeometry>
        </mxCell>
        <mxCell id="E8R9tOtTosxfVHhhN3oH-106" value="" style="endArrow=classic;html=1;rounded=0;entryX=0.5;entryY=0;entryDx=0;entryDy=0;" edge="1" parent="4" target="E8R9tOtTosxfVHhhN3oH-68">
          <mxGeometry width="50" height="50" relative="1" as="geometry">
            <mxPoint x="140" y="382" as="sourcePoint" />
            <mxPoint x="190" y="332" as="targetPoint" />
          </mxGeometry>
        </mxCell>
        <mxCell id="E8R9tOtTosxfVHhhN3oH-107" value="" style="endArrow=classic;html=1;rounded=0;entryX=0.5;entryY=0;entryDx=0;entryDy=0;" edge="1" parent="4">
          <mxGeometry width="50" height="50" relative="1" as="geometry">
            <mxPoint x="142.21000000000004" y="490" as="sourcePoint" />
            <mxPoint x="142.21000000000004" y="510" as="targetPoint" />
          </mxGeometry>
        </mxCell>
        <mxCell id="E8R9tOtTosxfVHhhN3oH-109" value="" style="endArrow=classic;html=1;rounded=0;entryX=0.5;entryY=0.018;entryDx=0;entryDy=0;entryPerimeter=0;" edge="1" parent="4" target="E8R9tOtTosxfVHhhN3oH-74">
          <mxGeometry width="50" height="50" relative="1" as="geometry">
            <mxPoint x="140" y="562" as="sourcePoint" />
            <mxPoint x="140" y="582" as="targetPoint" />
          </mxGeometry>
        </mxCell>
        <mxCell id="E8R9tOtTosxfVHhhN3oH-110" value="No" style="text;html=1;align=center;verticalAlign=middle;resizable=0;points=[];autosize=1;strokeColor=none;fillColor=none;" vertex="1" parent="4">
          <mxGeometry x="180" y="322" width="40" height="30" as="geometry" />
        </mxCell>
        <mxCell id="E8R9tOtTosxfVHhhN3oH-111" value="Yes" style="text;html=1;align=center;verticalAlign=middle;resizable=0;points=[];autosize=1;strokeColor=none;fillColor=none;" vertex="1" parent="4">
          <mxGeometry x="135" y="372" width="40" height="30" as="geometry" />
        </mxCell>
        <mxCell id="E8R9tOtTosxfVHhhN3oH-112" value="No" style="text;html=1;align=center;verticalAlign=middle;resizable=0;points=[];autosize=1;strokeColor=none;fillColor=none;" vertex="1" parent="4">
          <mxGeometry x="180" y="582" width="40" height="30" as="geometry" />
        </mxCell>
        <mxCell id="E8R9tOtTosxfVHhhN3oH-113" value="Yes" style="text;html=1;align=center;verticalAlign=middle;resizable=0;points=[];autosize=1;strokeColor=none;fillColor=none;" vertex="1" parent="4">
          <mxGeometry x="56" y="582" width="40" height="30" as="geometry" />
        </mxCell>
        <mxCell id="E8R9tOtTosxfVHhhN3oH-162" value="" style="edgeStyle=orthogonalEdgeStyle;rounded=0;orthogonalLoop=1;jettySize=auto;html=1;entryX=0.457;entryY=0.009;entryDx=0;entryDy=0;entryPerimeter=0;" edge="1" parent="4" target="E8R9tOtTosxfVHhhN3oH-161">
          <mxGeometry relative="1" as="geometry">
            <mxPoint x="200" y="1412" as="sourcePoint" />
            <Array as="points">
              <mxPoint x="201" y="1412" />
              <mxPoint x="201" y="1452" />
              <mxPoint x="202" y="1452" />
            </Array>
          </mxGeometry>
        </mxCell>
        <mxCell id="E8R9tOtTosxfVHhhN3oH-125" value="decrypted_msg" style="swimlane;whiteSpace=wrap;html=1;dashed=1;" vertex="1" parent="4">
          <mxGeometry x="109.83" y="1212" width="200" height="198" as="geometry" />
        </mxCell>
        <mxCell id="E8R9tOtTosxfVHhhN3oH-139" value="&#39;Done&#39;" style="rounded=0;whiteSpace=wrap;html=1;" vertex="1" parent="E8R9tOtTosxfVHhhN3oH-125">
          <mxGeometry x="58.620000000000005" y="31" width="82.75" height="30" as="geometry" />
        </mxCell>
        <mxCell id="E8R9tOtTosxfVHhhN3oH-140" value="random_data" style="rounded=0;whiteSpace=wrap;html=1;" vertex="1" parent="E8R9tOtTosxfVHhhN3oH-125">
          <mxGeometry x="58.63" y="75" width="82.75" height="30" as="geometry" />
        </mxCell>
        <mxCell id="E8R9tOtTosxfVHhhN3oH-141" value="mPub_key" style="rounded=0;whiteSpace=wrap;html=1;" vertex="1" parent="E8R9tOtTosxfVHhhN3oH-125">
          <mxGeometry x="58.63" y="120" width="82.75" height="30" as="geometry" />
        </mxCell>
        <mxCell id="E8R9tOtTosxfVHhhN3oH-314" value="device_pc_id" style="rounded=0;whiteSpace=wrap;html=1;fillColor=#b0e3e6;strokeColor=#0e8088;" vertex="1" parent="E8R9tOtTosxfVHhhN3oH-125">
          <mxGeometry x="58.620000000000005" y="160" width="82.75" height="30" as="geometry" />
        </mxCell>
        <mxCell id="E8R9tOtTosxfVHhhN3oH-142" value="Success?" style="rhombus;whiteSpace=wrap;html=1;" vertex="1" parent="4">
          <mxGeometry x="153.58" y="1072" width="92.5" height="80" as="geometry" />
        </mxCell>
        <mxCell id="E8R9tOtTosxfVHhhN3oH-143" value="decrypt" style="rounded=0;whiteSpace=wrap;html=1;" vertex="1" parent="4">
          <mxGeometry x="151.84" y="982" width="90" height="38" as="geometry" />
        </mxCell>
        <mxCell id="E8R9tOtTosxfVHhhN3oH-154" value="" style="endArrow=classic;html=1;rounded=0;exitX=0;exitY=0.5;exitDx=0;exitDy=0;strokeWidth=2;fillColor=#b1ddf0;strokeColor=#007FFF;" edge="1" parent="4" source="E8R9tOtTosxfVHhhN3oH-142">
          <mxGeometry width="50" height="50" relative="1" as="geometry">
            <mxPoint x="101.99" y="1112" as="sourcePoint" />
            <mxPoint x="-133.01" y="1112" as="targetPoint" />
          </mxGeometry>
        </mxCell>
        <mxCell id="E8R9tOtTosxfVHhhN3oH-161" value="ecrypted_msg(random_data, mPub_key)" style="whiteSpace=wrap;html=1;fontStyle=0;startSize=23;" vertex="1" parent="4">
          <mxGeometry x="114.83" y="1501" width="190" height="58" as="geometry" />
        </mxCell>
        <mxCell id="E8R9tOtTosxfVHhhN3oH-172" value="" style="endArrow=classic;html=1;rounded=0;strokeWidth=2;fillColor=#b1ddf0;strokeColor=#007FFF;exitX=0;exitY=0.5;exitDx=0;exitDy=0;" edge="1" parent="4" source="E8R9tOtTosxfVHhhN3oH-161">
          <mxGeometry width="50" height="50" relative="1" as="geometry">
            <mxPoint x="96.99" y="1532" as="sourcePoint" />
            <mxPoint x="-120" y="1530" as="targetPoint" />
          </mxGeometry>
        </mxCell>
        <mxCell id="E8R9tOtTosxfVHhhN3oH-173" value="No" style="text;html=1;align=center;verticalAlign=middle;resizable=0;points=[];autosize=1;strokeColor=none;fillColor=none;" vertex="1" parent="4">
          <mxGeometry x="106.99" y="1082" width="40" height="30" as="geometry" />
        </mxCell>
        <mxCell id="E8R9tOtTosxfVHhhN3oH-176" value="" style="whiteSpace=wrap;html=1;aspect=fixed;dashed=1;" vertex="1" parent="4">
          <mxGeometry x="144.03" y="842" width="105.63" height="105.63" as="geometry" />
        </mxCell>
        <mxCell id="E8R9tOtTosxfVHhhN3oH-177" value="encrypted_msg" style="rounded=0;whiteSpace=wrap;html=1;" vertex="1" parent="4">
          <mxGeometry x="151.84" y="881.8100000000001" width="90" height="26" as="geometry" />
        </mxCell>
        <mxCell id="E8R9tOtTosxfVHhhN3oH-214" value="" style="whiteSpace=wrap;html=1;aspect=fixed;dashed=1;" vertex="1" parent="4">
          <mxGeometry x="130.99999999999997" y="2102" width="118" height="118" as="geometry" />
        </mxCell>
        <mxCell id="E8R9tOtTosxfVHhhN3oH-215" value="succeed_exchange" style="rounded=0;whiteSpace=wrap;html=1;" vertex="1" parent="4">
          <mxGeometry x="137.86999999999998" y="2148" width="104.25" height="26" as="geometry" />
        </mxCell>
        <mxCell id="E8R9tOtTosxfVHhhN3oH-226" value="" style="endArrow=classic;html=1;rounded=0;entryX=0.54;entryY=0;entryDx=0;entryDy=0;entryPerimeter=0;" edge="1" parent="4">
          <mxGeometry width="50" height="50" relative="1" as="geometry">
            <mxPoint x="194.5" y="2220" as="sourcePoint" />
            <mxPoint x="194.36000000000013" y="2262" as="targetPoint" />
          </mxGeometry>
        </mxCell>
        <mxCell id="E8R9tOtTosxfVHhhN3oH-229" value="" style="endArrow=classic;html=1;rounded=0;exitX=0.5;exitY=1;exitDx=0;exitDy=0;entryX=0.5;entryY=0;entryDx=0;entryDy=0;" edge="1" parent="4" source="E8R9tOtTosxfVHhhN3oH-176" target="E8R9tOtTosxfVHhhN3oH-143">
          <mxGeometry width="50" height="50" relative="1" as="geometry">
            <mxPoint x="-210" y="1172" as="sourcePoint" />
            <mxPoint x="-160" y="1122" as="targetPoint" />
          </mxGeometry>
        </mxCell>
        <mxCell id="E8R9tOtTosxfVHhhN3oH-230" value="" style="endArrow=classic;html=1;rounded=0;exitX=0.5;exitY=1;exitDx=0;exitDy=0;entryX=0.5;entryY=0;entryDx=0;entryDy=0;" edge="1" parent="4" source="E8R9tOtTosxfVHhhN3oH-143" target="E8R9tOtTosxfVHhhN3oH-142">
          <mxGeometry width="50" height="50" relative="1" as="geometry">
            <mxPoint x="-210" y="1172" as="sourcePoint" />
            <mxPoint x="-160" y="1122" as="targetPoint" />
          </mxGeometry>
        </mxCell>
        <mxCell id="E8R9tOtTosxfVHhhN3oH-231" value="" style="endArrow=classic;html=1;rounded=0;exitX=0.5;exitY=1;exitDx=0;exitDy=0;entryX=0.457;entryY=-0.005;entryDx=0;entryDy=0;entryPerimeter=0;" edge="1" parent="4" source="E8R9tOtTosxfVHhhN3oH-142" target="E8R9tOtTosxfVHhhN3oH-125">
          <mxGeometry width="50" height="50" relative="1" as="geometry">
            <mxPoint x="-210" y="1172" as="sourcePoint" />
            <mxPoint x="-160" y="1122" as="targetPoint" />
          </mxGeometry>
        </mxCell>
        <mxCell id="E8R9tOtTosxfVHhhN3oH-232" value="Yes" style="text;html=1;align=center;verticalAlign=middle;resizable=0;points=[];autosize=1;strokeColor=none;fillColor=none;" vertex="1" parent="4">
          <mxGeometry x="160" y="1151" width="40" height="30" as="geometry" />
        </mxCell>
        <mxCell id="E8R9tOtTosxfVHhhN3oH-236" value="" style="whiteSpace=wrap;html=1;aspect=fixed;dashed=1;" vertex="1" parent="4">
          <mxGeometry x="137.83999999999992" y="1702" width="118" height="118" as="geometry" />
        </mxCell>
        <mxCell id="E8R9tOtTosxfVHhhN3oH-237" value="failed_exchange" style="rounded=0;whiteSpace=wrap;html=1;" vertex="1" parent="4">
          <mxGeometry x="144.71000000000004" y="1748" width="104.25" height="26" as="geometry" />
        </mxCell>
        <mxCell id="E8R9tOtTosxfVHhhN3oH-272" value="Stop flow" style="rounded=0;whiteSpace=wrap;html=1;fillColor=#bac8d3;strokeColor=#23445d;" vertex="1" parent="4">
          <mxGeometry x="299" y="1872" width="81" height="38" as="geometry" />
        </mxCell>
        <mxCell id="E8R9tOtTosxfVHhhN3oH-273" value="" style="endArrow=classic;html=1;rounded=0;entryX=0.5;entryY=1;entryDx=0;entryDy=0;exitX=1.002;exitY=0.185;exitDx=0;exitDy=0;exitPerimeter=0;" edge="1" parent="4" source="E8R9tOtTosxfVHhhN3oH-326" target="E8R9tOtTosxfVHhhN3oH-272">
          <mxGeometry width="50" height="50" relative="1" as="geometry">
            <mxPoint x="280" y="2285" as="sourcePoint" />
            <mxPoint x="-160" y="1972" as="targetPoint" />
            <Array as="points">
              <mxPoint x="340" y="2285" />
            </Array>
          </mxGeometry>
        </mxCell>
        <mxCell id="E8R9tOtTosxfVHhhN3oH-274" value="" style="endArrow=classic;html=1;rounded=0;exitX=1;exitY=0.5;exitDx=0;exitDy=0;entryX=0.5;entryY=0;entryDx=0;entryDy=0;" edge="1" parent="4" source="E8R9tOtTosxfVHhhN3oH-142" target="E8R9tOtTosxfVHhhN3oH-272">
          <mxGeometry width="50" height="50" relative="1" as="geometry">
            <mxPoint x="309.8299999999999" y="1442" as="sourcePoint" />
            <mxPoint x="359.8299999999999" y="1392" as="targetPoint" />
            <Array as="points">
              <mxPoint x="340" y="1112" />
            </Array>
          </mxGeometry>
        </mxCell>
        <mxCell id="E8R9tOtTosxfVHhhN3oH-326" value="persist" style="swimlane;whiteSpace=wrap;html=1;dashed=1;" vertex="1" parent="4">
          <mxGeometry x="110" y="2262" width="160.5" height="130" as="geometry" />
        </mxCell>
        <mxCell id="E8R9tOtTosxfVHhhN3oH-327" value="device_pc_id" style="rounded=0;whiteSpace=wrap;html=1;fillColor=#b0e3e6;strokeColor=#0e8088;" vertex="1" parent="E8R9tOtTosxfVHhhN3oH-326">
          <mxGeometry x="60" y="40" width="70" height="30" as="geometry" />
        </mxCell>
        <mxCell id="E8R9tOtTosxfVHhhN3oH-328" value="pub_key" style="rounded=0;whiteSpace=wrap;html=1;fillColor=#fad9d5;strokeColor=#ae4132;" vertex="1" parent="E8R9tOtTosxfVHhhN3oH-326">
          <mxGeometry x="60" y="88" width="70" height="30" as="geometry" />
        </mxCell>
        <mxCell id="E8R9tOtTosxfVHhhN3oH-329" value="uid" style="text;html=1;strokeColor=none;fillColor=none;align=center;verticalAlign=middle;whiteSpace=wrap;rounded=0;" vertex="1" parent="E8R9tOtTosxfVHhhN3oH-326">
          <mxGeometry y="58" width="60" height="30" as="geometry" />
        </mxCell>
        <mxCell id="E8R9tOtTosxfVHhhN3oH-144" value="" style="endArrow=classic;html=1;rounded=0;strokeWidth=2;fillColor=#0050ef;strokeColor=#007FFF;fontColor=#007FFF;" edge="1" parent="1">
          <mxGeometry width="50" height="50" relative="1" as="geometry">
            <mxPoint x="350" y="1020" as="sourcePoint" />
            <mxPoint x="520" y="1020" as="targetPoint" />
          </mxGeometry>
        </mxCell>
        <mxCell id="E8R9tOtTosxfVHhhN3oH-145" value="" style="endArrow=classic;html=1;rounded=0;strokeWidth=2;fillColor=#0050ef;strokeColor=#007FFF;exitX=1;exitY=0.5;exitDx=0;exitDy=0;" edge="1" parent="1" source="E8R9tOtTosxfVHhhN3oH-122">
          <mxGeometry width="50" height="50" relative="1" as="geometry">
            <mxPoint x="630" y="1020" as="sourcePoint" />
            <mxPoint x="900" y="1021" as="targetPoint" />
          </mxGeometry>
        </mxCell>
        <mxCell id="E8R9tOtTosxfVHhhN3oH-155" value="" style="endArrow=classic;html=1;rounded=0;strokeColor=#007FFF;strokeWidth=2;" edge="1" parent="1">
          <mxGeometry width="50" height="50" relative="1" as="geometry">
            <mxPoint x="516.99" y="1238" as="sourcePoint" />
            <mxPoint x="294.99" y="1238" as="targetPoint" />
          </mxGeometry>
        </mxCell>
        <mxCell id="E8R9tOtTosxfVHhhN3oH-207" value="No" style="text;html=1;align=center;verticalAlign=middle;resizable=0;points=[];autosize=1;strokeColor=none;fillColor=none;" vertex="1" parent="1">
          <mxGeometry x="150" y="1868" width="40" height="30" as="geometry" />
        </mxCell>
        <mxCell id="E8R9tOtTosxfVHhhN3oH-208" value="Yes" style="text;html=1;align=center;verticalAlign=middle;resizable=0;points=[];autosize=1;strokeColor=none;fillColor=none;" vertex="1" parent="1">
          <mxGeometry x="200" y="1928" width="40" height="30" as="geometry" />
        </mxCell>
        <mxCell id="E8R9tOtTosxfVHhhN3oH-220" value="" style="endArrow=none;html=1;rounded=0;exitX=0;exitY=0.5;exitDx=0;exitDy=0;" edge="1" parent="1" source="E8R9tOtTosxfVHhhN3oH-197">
          <mxGeometry width="50" height="50" relative="1" as="geometry">
            <mxPoint x="330" y="2130" as="sourcePoint" />
            <mxPoint x="80" y="2183" as="targetPoint" />
          </mxGeometry>
        </mxCell>
        <mxCell id="E8R9tOtTosxfVHhhN3oH-221" value="No" style="text;html=1;align=center;verticalAlign=middle;resizable=0;points=[];autosize=1;strokeColor=none;fillColor=none;" vertex="1" parent="1">
          <mxGeometry x="140" y="2158" width="40" height="30" as="geometry" />
        </mxCell>
        <mxCell id="E8R9tOtTosxfVHhhN3oH-222" value="" style="endArrow=classic;html=1;rounded=0;entryX=0;entryY=0.5;entryDx=0;entryDy=0;strokeColor=#007FFF;strokeWidth=2;exitX=1.001;exitY=0.136;exitDx=0;exitDy=0;exitPerimeter=0;" edge="1" parent="1" source="E8R9tOtTosxfVHhhN3oH-315" target="E8R9tOtTosxfVHhhN3oH-198">
          <mxGeometry width="50" height="50" relative="1" as="geometry">
            <mxPoint x="330" y="2293" as="sourcePoint" />
            <mxPoint x="540" y="2090" as="targetPoint" />
          </mxGeometry>
        </mxCell>
        <mxCell id="E8R9tOtTosxfVHhhN3oH-223" value="" style="endArrow=classic;html=1;rounded=0;exitX=1;exitY=0.5;exitDx=0;exitDy=0;strokeWidth=2;strokeColor=#007FFF;" edge="1" parent="1" source="E8R9tOtTosxfVHhhN3oH-198">
          <mxGeometry width="50" height="50" relative="1" as="geometry">
            <mxPoint x="520" y="2300" as="sourcePoint" />
            <mxPoint x="890" y="2290" as="targetPoint" />
          </mxGeometry>
        </mxCell>
        <mxCell id="E8R9tOtTosxfVHhhN3oH-235" value="" style="endArrow=classic;html=1;rounded=0;entryX=0;entryY=0.5;entryDx=0;entryDy=0;strokeWidth=2;strokeColor=#007FFF;" edge="1" parent="1" target="E8R9tOtTosxfVHhhN3oH-233">
          <mxGeometry width="50" height="50" relative="1" as="geometry">
            <mxPoint x="280" y="1890" as="sourcePoint" />
            <mxPoint x="600" y="1740" as="targetPoint" />
          </mxGeometry>
        </mxCell>
        <mxCell id="E8R9tOtTosxfVHhhN3oH-275" value="" style="endArrow=classic;html=1;rounded=0;entryX=0;entryY=0.5;entryDx=0;entryDy=0;strokeColor=#007FFF;strokeWidth=2;" edge="1" parent="1">
          <mxGeometry width="50" height="50" relative="1" as="geometry">
            <mxPoint x="650" y="1891" as="sourcePoint" />
            <mxPoint x="898" y="1890" as="targetPoint" />
          </mxGeometry>
        </mxCell>
        <mxCell id="E8R9tOtTosxfVHhhN3oH-276" value="" style="endArrow=none;html=1;rounded=0;exitX=1;exitY=0.5;exitDx=0;exitDy=0;" edge="1" parent="1" source="E8R9tOtTosxfVHhhN3oH-236">
          <mxGeometry width="50" height="50" relative="1" as="geometry">
            <mxPoint x="550" y="2010" as="sourcePoint" />
            <mxPoint x="1100" y="1889" as="targetPoint" />
          </mxGeometry>
        </mxCell>
      </root>
    </mxGraphModel>
  </diagram>
</mxfile>
